<?xml version="1.0" encoding="utf-8" standalone="no"?>
<!DOCTYPE svg PUBLIC "-//W3C//DTD SVG 1.1//EN"
  "http://www.w3.org/Graphics/SVG/1.1/DTD/svg11.dtd">
<svg xmlns:xlink="http://www.w3.org/1999/xlink" width="1152pt" height="648pt" viewBox="0 0 1152 648" xmlns="http://www.w3.org/2000/svg" version="1.1">
 <metadata>
  <rdf:RDF xmlns:dc="http://purl.org/dc/elements/1.1/" xmlns:cc="http://creativecommons.org/ns#" xmlns:rdf="http://www.w3.org/1999/02/22-rdf-syntax-ns#">
   <cc:Work>
    <dc:type rdf:resource="http://purl.org/dc/dcmitype/StillImage"/>
    <dc:date>2026-05-19T12:52:46.997868</dc:date>
    <dc:format>image/svg+xml</dc:format>
    <dc:creator>
     <cc:Agent>
      <dc:title>Matplotlib v3.10.1, https://matplotlib.org/</dc:title>
     </cc:Agent>
    </dc:creator>
   </cc:Work>
  </rdf:RDF>
 </metadata>
 <defs>
  <style type="text/css">*{stroke-linejoin: round; stroke-linecap: butt}</style>
 </defs>
 <g id="figure_1">
  <g id="patch_1">
   <path d="M 0 648 
L 1152 648 
L 1152 0 
L 0 0 
z
" style="fill: #ffffff"/>
  </g>
  <g id="axes_1">
   <g id="patch_2">
    <path d="M 138.24 427.68 
L 1082.88 427.68 
L 1082.88 220.32 
L 138.24 220.32 
z
" style="fill: #ffffff"/>
   </g>
   <g id="matplotlib.axis_1">
    <g id="xtick_1">
     <g id="line2d_1">
      <path d="M 138.24 427.68 
L 138.24 220.32 
" clip-path="url(#pdeffdbd21b)" style="fill: none; stroke: #e6e6e6; stroke-width: 0.8; stroke-linecap: square"/>
     </g>
     <g id="line2d_2">
      <defs>
       <path id="mc25c9a8b83" d="M 0 0 
L 0 3.5 
" style="stroke: #333333; stroke-width: 0.8"/>
      </defs>
      <g>
       <use xlink:href="#mc25c9a8b83" x="138.24" y="427.68" style="fill: #333333; stroke: #333333; stroke-width: 0.8"/>
      </g>
     </g>
     <g id="text_1">
      <text style="font-size: 13px; font-family: 'DejaVu Sans'; text-anchor: middle; fill: #333333" x="138.24" y="444.557969" transform="rotate(-0 138.24 444.557969)">0</text>
     </g>
    </g>
    <g id="xtick_2">
     <g id="line2d_3">
      <path d="M 333.910134 427.68 
L 333.910134 220.32 
" clip-path="url(#pdeffdbd21b)" style="fill: none; stroke: #e6e6e6; stroke-width: 0.8; stroke-linecap: square"/>
     </g>
     <g id="line2d_4">
      <g>
       <use xlink:href="#mc25c9a8b83" x="333.910134" y="427.68" style="fill: #333333; stroke: #333333; stroke-width: 0.8"/>
      </g>
     </g>
     <g id="text_2">
      <text style="font-size: 13px; font-family: 'DejaVu Sans'; text-anchor: middle; fill: #333333" x="333.910134" y="444.557969" transform="rotate(-0 333.910134 444.557969)">2</text>
     </g>
    </g>
    <g id="xtick_3">
     <g id="line2d_5">
      <path d="M 529.580268 427.68 
L 529.580268 220.32 
" clip-path="url(#pdeffdbd21b)" style="fill: none; stroke: #e6e6e6; stroke-width: 0.8; stroke-linecap: square"/>
     </g>
     <g id="line2d_6">
      <g>
       <use xlink:href="#mc25c9a8b83" x="529.580268" y="427.68" style="fill: #333333; stroke: #333333; stroke-width: 0.8"/>
      </g>
     </g>
     <g id="text_3">
      <text style="font-size: 13px; font-family: 'DejaVu Sans'; text-anchor: middle; fill: #333333" x="529.580268" y="444.557969" transform="rotate(-0 529.580268 444.557969)">4</text>
     </g>
    </g>
    <g id="xtick_4">
     <g id="line2d_7">
      <path d="M 725.250402 427.68 
L 725.250402 220.32 
" clip-path="url(#pdeffdbd21b)" style="fill: none; stroke: #e6e6e6; stroke-width: 0.8; stroke-linecap: square"/>
     </g>
     <g id="line2d_8">
      <g>
       <use xlink:href="#mc25c9a8b83" x="725.250402" y="427.68" style="fill: #333333; stroke: #333333; stroke-width: 0.8"/>
      </g>
     </g>
     <g id="text_4">
      <text style="font-size: 13px; font-family: 'DejaVu Sans'; text-anchor: middle; fill: #333333" x="725.250402" y="444.557969" transform="rotate(-0 725.250402 444.557969)">6</text>
     </g>
    </g>
    <g id="xtick_5">
     <g id="line2d_9">
      <path d="M 920.920536 427.68 
L 920.920536 220.32 
" clip-path="url(#pdeffdbd21b)" style="fill: none; stroke: #e6e6e6; stroke-width: 0.8; stroke-linecap: square"/>
     </g>
     <g id="line2d_10">
      <g>
       <use xlink:href="#mc25c9a8b83" x="920.920536" y="427.68" style="fill: #333333; stroke: #333333; stroke-width: 0.8"/>
      </g>
     </g>
     <g id="text_5">
      <text style="font-size: 13px; font-family: 'DejaVu Sans'; text-anchor: middle; fill: #333333" x="920.920536" y="444.557969" transform="rotate(-0 920.920536 444.557969)">8</text>
     </g>
    </g>
    <g id="text_6">
     <text style="font-size: 14px; font-family: 'DejaVu Sans'; text-anchor: middle; fill: #333333" x="610.56" y="461.899375" transform="rotate(-0 610.56 461.899375)">Weighted average hours/day in leisure</text>
    </g>
   </g>
   <g id="matplotlib.axis_2">
    <g id="ytick_1">
     <g id="line2d_11">
      <defs>
       <path id="mae74c5c17a" d="M 0 0 
L -3.5 0 
" style="stroke: #333333; stroke-width: 0.8"/>
      </defs>
      <g>
       <use xlink:href="#mae74c5c17a" x="138.24" y="242.746082" style="fill: #333333; stroke: #333333; stroke-width: 0.8"/>
      </g>
     </g>
     <g id="text_7">
      <text style="font-size: 13px; font-family: 'DejaVu Sans'; text-anchor: end; fill: #333333" x="131.24" y="247.685066" transform="rotate(-0 131.24 247.685066)">18-24</text>
     </g>
    </g>
    <g id="ytick_2">
     <g id="line2d_12">
      <g>
       <use xlink:href="#mae74c5c17a" x="138.24" y="275.247649" style="fill: #333333; stroke: #333333; stroke-width: 0.8"/>
      </g>
     </g>
     <g id="text_8">
      <text style="font-size: 13px; font-family: 'DejaVu Sans'; text-anchor: end; fill: #333333" x="131.24" y="280.186633" transform="rotate(-0 131.24 280.186633)">25-34</text>
     </g>
    </g>
    <g id="ytick_3">
     <g id="line2d_13">
      <g>
       <use xlink:href="#mae74c5c17a" x="138.24" y="307.749216" style="fill: #333333; stroke: #333333; stroke-width: 0.8"/>
      </g>
     </g>
     <g id="text_9">
      <text style="font-size: 13px; font-family: 'DejaVu Sans'; text-anchor: end; fill: #333333" x="131.24" y="312.688201" transform="rotate(-0 131.24 312.688201)">35-44</text>
     </g>
    </g>
    <g id="ytick_4">
     <g id="line2d_14">
      <g>
       <use xlink:href="#mae74c5c17a" x="138.24" y="340.250784" style="fill: #333333; stroke: #333333; stroke-width: 0.8"/>
      </g>
     </g>
     <g id="text_10">
      <text style="font-size: 13px; font-family: 'DejaVu Sans'; text-anchor: end; fill: #333333" x="131.24" y="345.189768" transform="rotate(-0 131.24 345.189768)">45-54</text>
     </g>
    </g>
    <g id="ytick_5">
     <g id="line2d_15">
      <g>
       <use xlink:href="#mae74c5c17a" x="138.24" y="372.752351" style="fill: #333333; stroke: #333333; stroke-width: 0.8"/>
      </g>
     </g>
     <g id="text_11">
      <text style="font-size: 13px; font-family: 'DejaVu Sans'; text-anchor: end; fill: #333333" x="131.24" y="377.691335" transform="rotate(-0 131.24 377.691335)">55-64</text>
     </g>
    </g>
    <g id="ytick_6">
     <g id="line2d_16">
      <g>
       <use xlink:href="#mae74c5c17a" x="138.24" y="405.253918" style="fill: #333333; stroke: #333333; stroke-width: 0.8"/>
      </g>
     </g>
     <g id="text_12">
      <text style="font-size: 13px; font-family: 'DejaVu Sans'; text-anchor: end; fill: #333333" x="131.24" y="410.192903" transform="rotate(-0 131.24 410.192903)">65+</text>
     </g>
    </g>
   </g>
   <g id="patch_3">
    <path d="M 138.24 229.745455 
L 325.530039 229.745455 
L 325.530039 255.746708 
L 138.24 255.746708 
z
" clip-path="url(#pdeffdbd21b)" style="fill: #f2acad"/>
   </g>
   <g id="patch_4">
    <path d="M 138.24 262.247022 
L 318.362897 262.247022 
L 318.362897 288.248276 
L 138.24 288.248276 
z
" clip-path="url(#pdeffdbd21b)" style="fill: #f2acad"/>
   </g>
   <g id="patch_5">
    <path d="M 138.24 294.748589 
L 324.668199 294.748589 
L 324.668199 320.749843 
L 138.24 320.749843 
z
" clip-path="url(#pdeffdbd21b)" style="fill: #f2acad"/>
   </g>
   <g id="patch_6">
    <path d="M 138.24 327.250157 
L 348.042272 327.250157 
L 348.042272 353.251411 
L 138.24 353.251411 
z
" clip-path="url(#pdeffdbd21b)" style="fill: #f2acad"/>
   </g>
   <g id="patch_7">
    <path d="M 138.24 359.751724 
L 439.742789 359.751724 
L 439.742789 385.752978 
L 138.24 385.752978 
z
" clip-path="url(#pdeffdbd21b)" style="fill: #f2acad"/>
   </g>
   <g id="patch_8">
    <path d="M 138.24 392.253292 
L 550.984451 392.253292 
L 550.984451 418.254545 
L 138.24 418.254545 
z
" clip-path="url(#pdeffdbd21b)" style="fill: #f2acad"/>
   </g>
   <g id="patch_9">
    <path d="M 325.530039 229.745455 
L 386.851346 229.745455 
L 386.851346 255.746708 
L 325.530039 255.746708 
z
" clip-path="url(#pdeffdbd21b)" style="fill: #eb888a"/>
   </g>
   <g id="patch_10">
    <path d="M 318.362897 262.247022 
L 369.967154 262.247022 
L 369.967154 288.248276 
L 318.362897 288.248276 
z
" clip-path="url(#pdeffdbd21b)" style="fill: #eb888a"/>
   </g>
   <g id="patch_11">
    <path d="M 324.668199 294.748589 
L 371.653011 294.748589 
L 371.653011 320.749843 
L 324.668199 320.749843 
z
" clip-path="url(#pdeffdbd21b)" style="fill: #eb888a"/>
   </g>
   <g id="patch_12">
    <path d="M 348.042272 327.250157 
L 403.43157 327.250157 
L 403.43157 353.251411 
L 348.042272 353.251411 
z
" clip-path="url(#pdeffdbd21b)" style="fill: #eb888a"/>
   </g>
   <g id="patch_13">
    <path d="M 439.742789 359.751724 
L 491.013137 359.751724 
L 491.013137 385.752978 
L 439.742789 385.752978 
z
" clip-path="url(#pdeffdbd21b)" style="fill: #eb888a"/>
   </g>
   <g id="patch_14">
    <path d="M 550.984451 392.253292 
L 602.017474 392.253292 
L 602.017474 418.254545 
L 550.984451 418.254545 
z
" clip-path="url(#pdeffdbd21b)" style="fill: #eb888a"/>
   </g>
   <g id="patch_15">
    <path d="M 386.851346 229.745455 
L 402.889222 229.745455 
L 402.889222 255.746708 
L 386.851346 255.746708 
z
" clip-path="url(#pdeffdbd21b)" style="fill: #e46466"/>
   </g>
   <g id="patch_16">
    <path d="M 369.967154 262.247022 
L 386.34027 262.247022 
L 386.34027 288.248276 
L 369.967154 288.248276 
z
" clip-path="url(#pdeffdbd21b)" style="fill: #e46466"/>
   </g>
   <g id="patch_17">
    <path d="M 371.653011 294.748589 
L 386.748116 294.748589 
L 386.748116 320.749843 
L 371.653011 320.749843 
z
" clip-path="url(#pdeffdbd21b)" style="fill: #e46466"/>
   </g>
   <g id="patch_18">
    <path d="M 403.43157 327.250157 
L 420.933297 327.250157 
L 420.933297 353.251411 
L 403.43157 353.251411 
z
" clip-path="url(#pdeffdbd21b)" style="fill: #e46466"/>
   </g>
   <g id="patch_19">
    <path d="M 491.013137 359.751724 
L 522.904831 359.751724 
L 522.904831 385.752978 
L 491.013137 385.752978 
z
" clip-path="url(#pdeffdbd21b)" style="fill: #e46466"/>
   </g>
   <g id="patch_20">
    <path d="M 602.017474 392.253292 
L 660.050131 392.253292 
L 660.050131 418.254545 
L 602.017474 418.254545 
z
" clip-path="url(#pdeffdbd21b)" style="fill: #e46466"/>
   </g>
   <g id="patch_21">
    <path d="M 402.889222 229.745455 
L 407.873837 229.745455 
L 407.873837 255.746708 
L 402.889222 255.746708 
z
" clip-path="url(#pdeffdbd21b)" style="fill: #d14f52"/>
   </g>
   <g id="patch_22">
    <path d="M 386.34027 262.247022 
L 390.016979 262.247022 
L 390.016979 288.248276 
L 386.34027 288.248276 
z
" clip-path="url(#pdeffdbd21b)" style="fill: #d14f52"/>
   </g>
   <g id="patch_23">
    <path d="M 386.748116 294.748589 
L 389.892835 294.748589 
L 389.892835 320.749843 
L 386.748116 320.749843 
z
" clip-path="url(#pdeffdbd21b)" style="fill: #d14f52"/>
   </g>
   <g id="patch_24">
    <path d="M 420.933297 327.250157 
L 425.601067 327.250157 
L 425.601067 353.251411 
L 420.933297 353.251411 
z
" clip-path="url(#pdeffdbd21b)" style="fill: #d14f52"/>
   </g>
   <g id="patch_25">
    <path d="M 522.904831 359.751724 
L 527.69593 359.751724 
L 527.69593 385.752978 
L 522.904831 385.752978 
z
" clip-path="url(#pdeffdbd21b)" style="fill: #d14f52"/>
   </g>
   <g id="patch_26">
    <path d="M 660.050131 392.253292 
L 663.689807 392.253292 
L 663.689807 418.254545 
L 660.050131 418.254545 
z
" clip-path="url(#pdeffdbd21b)" style="fill: #d14f52"/>
   </g>
   <g id="patch_27">
    <path d="M 407.873837 229.745455 
L 506.875027 229.745455 
L 506.875027 255.746708 
L 407.873837 255.746708 
z
" clip-path="url(#pdeffdbd21b)" style="fill: #b64148"/>
   </g>
   <g id="patch_28">
    <path d="M 390.016979 262.247022 
L 471.293034 262.247022 
L 471.293034 288.248276 
L 390.016979 288.248276 
z
" clip-path="url(#pdeffdbd21b)" style="fill: #b64148"/>
   </g>
   <g id="patch_29">
    <path d="M 389.892835 294.748589 
L 428.5697 294.748589 
L 428.5697 320.749843 
L 389.892835 320.749843 
z
" clip-path="url(#pdeffdbd21b)" style="fill: #b64148"/>
   </g>
   <g id="patch_30">
    <path d="M 425.601067 327.250157 
L 458.173522 327.250157 
L 458.173522 353.251411 
L 425.601067 353.251411 
z
" clip-path="url(#pdeffdbd21b)" style="fill: #b64148"/>
   </g>
   <g id="patch_31">
    <path d="M 527.69593 359.751724 
L 560.760384 359.751724 
L 560.760384 385.752978 
L 527.69593 385.752978 
z
" clip-path="url(#pdeffdbd21b)" style="fill: #b64148"/>
   </g>
   <g id="patch_32">
    <path d="M 663.689807 392.253292 
L 708.051618 392.253292 
L 708.051618 418.254545 
L 663.689807 418.254545 
z
" clip-path="url(#pdeffdbd21b)" style="fill: #b64148"/>
   </g>
   <g id="patch_33">
    <path d="M 506.875027 229.745455 
L 744.372757 229.745455 
L 744.372757 255.746708 
L 506.875027 255.746708 
z
" clip-path="url(#pdeffdbd21b)" style="fill: #9c343d"/>
   </g>
   <g id="patch_34">
    <path d="M 471.293034 262.247022 
L 687.015469 262.247022 
L 687.015469 288.248276 
L 471.293034 288.248276 
z
" clip-path="url(#pdeffdbd21b)" style="fill: #9c343d"/>
   </g>
   <g id="patch_35">
    <path d="M 428.5697 294.748589 
L 651.552578 294.748589 
L 651.552578 320.749843 
L 428.5697 320.749843 
z
" clip-path="url(#pdeffdbd21b)" style="fill: #9c343d"/>
   </g>
   <g id="patch_36">
    <path d="M 458.173522 327.250157 
L 702.139545 327.250157 
L 702.139545 353.251411 
L 458.173522 353.251411 
z
" clip-path="url(#pdeffdbd21b)" style="fill: #9c343d"/>
   </g>
   <g id="patch_37">
    <path d="M 560.760384 359.751724 
L 801.553354 359.751724 
L 801.553354 385.752978 
L 560.760384 385.752978 
z
" clip-path="url(#pdeffdbd21b)" style="fill: #9c343d"/>
   </g>
   <g id="patch_38">
    <path d="M 708.051618 392.253292 
L 1012.906667 392.253292 
L 1012.906667 418.254545 
L 708.051618 418.254545 
z
" clip-path="url(#pdeffdbd21b)" style="fill: #9c343d"/>
   </g>
   <g id="patch_39">
    <path d="M 138.24 427.68 
L 138.24 220.32 
" style="fill: none; stroke: #000000; stroke-width: 0.8; stroke-linejoin: miter; stroke-linecap: square"/>
   </g>
   <g id="patch_40">
    <path d="M 138.24 427.68 
L 1082.88 427.68 
" style="fill: none; stroke: #000000; stroke-width: 0.8; stroke-linejoin: miter; stroke-linecap: square"/>
   </g>
  </g>
  <g id="text_13">
   <text style="font-weight: 700; font-size: 30px; font-family: 'DejaVu Sans'; text-anchor: start; fill: #202020" x="63.36" y="45.475313" transform="rotate(-0 63.36 45.475313)">Older adults spend more leisure time, especially TV/movies</text>
  </g>
  <g id="text_14">
   <text style="font-size: 16px; font-family: 'DejaVu Sans'; text-anchor: start; fill: #4a4a4a" x="63.36" y="86.6775" transform="rotate(-0 63.36 86.6775)">Top leisure groups plus other leisure, shown as hours/day within the leisure room.</text>
  </g>
  <g id="text_15">
   <text style="font-size: 10.5px; font-family: 'DejaVu Sans'; text-anchor: start; fill: #666666" x="63.36" y="625.080328" transform="rotate(-0 63.36 625.080328)">Source: 2024 American Time Use Survey, U.S. Bureau of Labor Statistics.</text>
  </g>
  <g id="legend_1">
   <g id="patch_41">
    <path d="M 347.444297 523.794844 
L 373.444297 523.794844 
L 373.444297 514.694844 
L 347.444297 514.694844 
z
" style="fill: #f2acad"/>
   </g>
   <g id="text_16">
    <text style="font-size: 13px; font-family: 'DejaVu Sans'; text-anchor: start" x="383.844297" y="523.794844" transform="rotate(-0 383.844297 523.794844)">Television and movies</text>
   </g>
   <g id="patch_42">
    <path d="M 347.444297 542.876406 
L 373.444297 542.876406 
L 373.444297 533.776406 
L 347.444297 533.776406 
z
" style="fill: #eb888a"/>
   </g>
   <g id="text_17">
    <text style="font-size: 13px; font-family: 'DejaVu Sans'; text-anchor: start" x="383.844297" y="542.876406" transform="rotate(-0 383.844297 542.876406)">Socializing</text>
   </g>
   <g id="patch_43">
    <path d="M 545.982734 523.794844 
L 571.982734 523.794844 
L 571.982734 514.694844 
L 545.982734 514.694844 
z
" style="fill: #e46466"/>
   </g>
   <g id="text_18">
    <text style="font-size: 13px; font-family: 'DejaVu Sans'; text-anchor: start" x="582.382734" y="523.794844" transform="rotate(-0 582.382734 523.794844)">Reading</text>
   </g>
   <g id="patch_44">
    <path d="M 545.982734 542.876406 
L 571.982734 542.876406 
L 571.982734 533.776406 
L 545.982734 533.776406 
z
" style="fill: #d14f52"/>
   </g>
   <g id="text_19">
    <text style="font-size: 13px; font-family: 'DejaVu Sans'; text-anchor: start" x="582.382734" y="542.876406" transform="rotate(-0 582.382734 542.876406)">Sports/exercise</text>
   </g>
   <g id="patch_45">
    <path d="M 701.576484 523.794844 
L 727.576484 523.794844 
L 727.576484 514.694844 
L 701.576484 514.694844 
z
" style="fill: #b64148"/>
   </g>
   <g id="text_20">
    <text style="font-size: 13px; font-family: 'DejaVu Sans'; text-anchor: start" x="737.976484" y="523.794844" transform="rotate(-0 737.976484 523.794844)">Computer/games</text>
   </g>
   <g id="patch_46">
    <path d="M 701.576484 542.876406 
L 727.576484 542.876406 
L 727.576484 533.776406 
L 701.576484 533.776406 
z
" style="fill: #9c343d"/>
   </g>
   <g id="text_21">
    <text style="font-size: 13px; font-family: 'DejaVu Sans'; text-anchor: start" x="737.976484" y="542.876406" transform="rotate(-0 737.976484 542.876406)">Other leisure</text>
   </g>
  </g>
 </g>
 <defs>
  <clipPath id="pdeffdbd21b">
   <rect x="138.24" y="220.32" width="944.64" height="207.36"/>
  </clipPath>
 </defs>
</svg>
